<svg width="20" height="20" viewBox="0 0 20 20" fill="none" xmlns="http://www.w3.org/2000/svg">
<path fill-rule="evenodd" clip-rule="evenodd" d="M19.7866 10.4116L18.3081 8.93306C18.1908 8.81585 18.125 8.65688 18.125 8.49112V6.68228C18.125 5.01069 17.9509 4.40453 17.6241 3.79341C17.2973 3.1823 16.8177 2.7027 16.2066 2.37587C15.5955 2.04905 14.9893 1.875 13.3177 1.875H10.9268C10.8577 1.875 10.8018 1.81904 10.8018 1.75C10.8018 1.71685 10.8149 1.68505 10.8384 1.66161L12.3169 0.183058C12.4341 0.065848 12.5931 0 12.7589 0H13.5903C15.8191 0 16.6273 0.232064 17.4421 0.667832C18.2569 1.1036 18.8964 1.74307 19.3322 2.55789C19.7679 3.3727 20 4.18092 20 6.40971V10.3232C20 10.3923 19.944 10.4482 19.875 10.4482C19.8418 10.4482 19.81 10.4351 19.7866 10.4116ZM9.58838 19.7866L11.0669 18.308C11.1841 18.1908 11.3431 18.125 11.5089 18.125H13.3177C14.9893 18.125 15.5955 17.9509 16.2066 17.6241C16.8177 17.2973 17.2973 16.8177 17.6241 16.2065C17.9509 15.5954 18.125 14.9893 18.125 13.3177V10.9267C18.125 10.8577 18.181 10.8017 18.25 10.8017C18.2831 10.8017 18.3149 10.8149 18.3384 10.8384L19.8169 12.3169C19.9341 12.4341 20 12.5931 20 12.7588V13.5903C20 15.819 19.7679 16.6273 19.3322 17.4421C18.8964 18.2569 18.2569 18.8964 17.4421 19.3321C16.6273 19.7679 15.8191 20 13.5903 20H9.67677C9.60773 20 9.55177 19.944 9.55177 19.875C9.55177 19.8418 9.56494 19.81 9.58838 19.7866ZM0.213388 9.58835L1.69194 11.0669C1.80915 11.1841 1.875 11.3431 1.875 11.5088V13.3177C1.875 14.9893 2.04905 15.5954 2.37587 16.2066C2.7027 16.8177 3.1823 17.2973 3.79341 17.6241C4.40452 17.9509 5.01069 18.125 6.68228 18.125H9.07322C9.14226 18.125 9.19822 18.1809 9.19822 18.25C9.19822 18.2831 9.18505 18.3149 9.16161 18.3384L7.68306 19.8169C7.56585 19.9341 7.40688 20 7.24112 20H6.40971C4.18092 20 3.3727 19.7679 2.55789 19.3321C1.74307 18.8964 1.1036 18.2569 0.667832 17.4421C0.232064 16.6273 0 15.819 0 13.5903V9.67674C0 9.60771 0.0559644 9.55174 0.125 9.55174C0.158152 9.55174 0.189946 9.56491 0.213388 9.58835ZM10.4116 0.213388L8.93306 1.69194C8.81585 1.80915 8.65688 1.875 8.49112 1.875H6.68228C5.01069 1.875 4.40453 2.04905 3.79341 2.37587C3.1823 2.7027 2.7027 3.1823 2.37587 3.79341C2.04905 4.40452 1.875 5.01069 1.875 6.68228V9.07322C1.875 9.14226 1.81904 9.19822 1.75 9.19822C1.71685 9.19822 1.68505 9.18505 1.66161 9.16161L0.183058 7.68306C0.065848 7.56585 0 7.40688 0 7.24112V6.40971C0 4.18092 0.232064 3.3727 0.667832 2.55789C1.1036 1.74307 1.74307 1.1036 2.55789 0.667832C3.3727 0.232064 4.18092 0 6.40971 0H10.3232C10.3923 0 10.4482 0.0559644 10.4482 0.125C10.4482 0.158152 10.4351 0.189946 10.4116 0.213388ZM16.6636 7.29799L14.6474 5.37113C14.5141 5.23781 14.3582 5.1409 14.192 5.0804C14.0545 5.02844 13.9056 5 13.7499 5H7.80032C7.73128 5 7.67532 4.94404 7.67532 4.875C7.67532 4.84183 7.6885 4.81002 7.71197 4.78657L9.19191 3.30787C9.30911 3.19078 9.468 3.125 9.63367 3.125H14.3749C15.7557 3.125 16.8749 4.24429 16.8749 5.625V7.20763C16.8749 7.27666 16.819 7.33263 16.7499 7.33263C16.7178 7.33263 16.6868 7.32022 16.6636 7.29799ZM12.702 16.6652L14.6289 14.6491C14.7622 14.5157 14.8591 14.3598 14.9196 14.1936C14.9716 14.0562 15 13.9072 15 13.7516V7.80194C15 7.73291 15.056 7.67694 15.125 7.67694C15.1582 7.67694 15.19 7.69013 15.2135 7.71359L16.6922 9.19354C16.8093 9.31073 16.875 9.46963 16.875 9.6353V14.3766C16.875 15.7573 15.7557 16.8766 14.375 16.8766H12.7924C12.7234 16.8766 12.6674 16.8206 12.6674 16.7516C12.6674 16.7194 12.6798 16.6885 12.702 16.6652ZM3.33637 12.702L5.3525 14.6288C5.48582 14.7622 5.64176 14.8591 5.80797 14.9196C5.9454 14.9715 6.09438 15 6.25 15H12.1996C12.2687 15 12.3246 15.0559 12.3246 15.125C12.3246 15.1581 12.3114 15.19 12.288 15.2134L10.808 16.6921C10.6908 16.8092 10.5319 16.875 10.3663 16.875H5.625C4.24429 16.875 3.125 15.7557 3.125 14.375V12.7924C3.125 12.7233 3.18096 12.6674 3.25 12.6674C3.28217 12.6674 3.31311 12.6798 3.33637 12.702ZM7.29799 3.33637L5.37113 5.3525C5.23781 5.48582 5.1409 5.64176 5.0804 5.80797C5.02844 5.9454 5 6.09438 5 6.25V12.1996C5 12.2687 4.94404 12.3246 4.875 12.3246C4.84183 12.3246 4.81002 12.3114 4.78657 12.288L3.30787 10.808C3.19078 10.6908 3.125 10.5319 3.125 10.3663V5.625C3.125 4.24429 4.24429 3.125 5.625 3.125H7.20763C7.27666 3.125 7.33263 3.18096 7.33263 3.25C7.33263 3.28217 7.32022 3.31311 7.29799 3.33637Z" fill="black"/>
</svg>
